Patient4_TMGait_0pt8_01_left_24_GRF.mot
version=1
nRows=52
nColumns=19
inDegrees=no
endheader
time	F1x	F1y	F1z	M1x	M1y	M1z	F2x	F2y	F2z	M2x	M2y	M2z	EC1x	EC1y	EC1z	EC2x	EC2y	EC2z
26.19	-9.7217	4.0275	14.668	-3.8559	-14.4614	9.4494	-59.2949	710.5339	-54.0488	259.1634	91.6914	853.5164	-0.0592	0.0182	-0.0073	-0.0462	0.0165	0.9585
26.2016	-6.5673	3.6122	9.9763	-2.9876	-9.8198	7.4872	-56.3119	711.4086	-57.0476	259.2575	92.4995	848.9399	-0.0592	0.0182	-0.0073	-0.0462	0.0165	0.9585
26.2131	-3.9513	3.3149	5.9846	-2.2455	-5.9019	5.8628	-52.9678	711.5562	-59.2667	259.0742	92.3474	842.645	-0.0592	0.0182	-0.0073	-0.0462	0.0165	0.9585
26.2247	-1.9774	3.1522	2.9073	-1.6843	-2.902	4.6744	-49.2488	711.27	-60.5136	258.7678	91.1023	835.1066	-0.0592	0.0182	-0.0073	-0.0462	0.0165	0.9585
26.2363	-0.63934	3.1098	0.76126	-1.306	-0.83197	3.9411	-44.9968	711.0483	-60.8016	258.5748	88.7527	826.9571	-0.0592	0.0182	-0.0073	-0.0462	0.0165	0.9585
26.2479	0.18154	3.1462	-0.59646	-1.0817	0.45568	3.5682	-40.0095	711.5051	-60.2448	258.767	85.3519	818.9154	-0.0592	0.0182	-0.0073	-0.0462	0.0165	0.9585
26.2594	0.57815	3.2159	-1.3241	-0.96833	1.1124	3.4532	-34.0699	713.3405	-59.0092	259.6281	80.9883	811.7685	-0.0592	0.0182	-0.0073	-0.0462	0.0165	0.9585
26.271	0.69057	3.2472	-1.6081	-0.91606	1.3276	3.4372	-27.0953	717.2337	-57.292	261.4051	75.8183	806.3189	-0.0592	0.0182	-0.0073	-0.0462	0.0165	0.9585
26.2826	0.58586	3.1735	-1.5881	-0.87351	1.2279	3.3733	-19.1714	723.6549	-55.3318	264.2387	70.101	803.1868	-0.0592	0.0182	-0.0073	-0.0462	0.0165	0.9585
26.2941	0.35202	2.9012	-1.3874	-0.78551	0.9337	3.0735	-10.58	732.7235	-53.4159	268.1069	64.213	802.678	-0.0592	0.0182	-0.0073	-0.0462	0.0165	0.9585
26.3057	0.029292	2.3588	-1.09	-0.60547	0.52635	2.4236	-1.7442	743.9938	-51.8569	272.7657	58.6074	804.5412	-0.0592	0.0182	-0.0073	-0.0462	0.0165	0.9585
26.3173	-0.32495	1.4415	-0.75111	-0.28543	0.067953	1.2757	6.8467	756.516	-50.9665	277.7775	53.7669	808.0195	-0.0592	0.0182	-0.0073	-0.0462	0.0165	0.9585
26.3289	-0.67344	0.091454	-0.41477	0.20651	-0.38735	-0.43541	14.7565	769.0392	-50.9364	282.6096	50.0399	812.021	-0.0592	0.0182	-0.0073	-0.0462	0.0165	0.9585
26.3404	-0.9172	-1.6961	-0.1191	0.87826	-0.76403	-2.7318	21.6438	780.2141	-51.8273	286.7206	47.6026	815.3144	-0.0592	0.0182	-0.0073	-0.0462	0.0165	0.9585
26.352	-0.97068	-3.8212	0.0879	1.6922	-0.96503	-5.4754	27.2969	788.7493	-53.5182	289.6185	46.4112	816.6733	-0.0592	0.0182	-0.0073	-0.0462	0.0165	0.9585
26.3636	-0.67288	-6.0122	0.14967	2.5374	-0.85149	-8.315	31.5773	793.4796	-55.7739	290.8903	46.2874	814.9555	-0.0592	0.0182	-0.0073	-0.0462	0.0165	0.9585
26.3751	0.15101	-7.7477	-0.0067797	3.2017	-0.25312	-10.5697	34.4668	793.5555	-58.3105	290.2627	46.9677	809.3086	-0.0592	0.0182	-0.0073	-0.0462	0.0165	0.9585
26.3867	1.7207	-8.1945	-0.47635	3.3484	1.0384	-11.178	36.078	788.6102	-60.8521	287.6549	48.1508	799.3343	-0.0592	0.0182	-0.0073	-0.0462	0.0165	0.9585
26.3983	4.2464	-6.1197	-1.3648	2.4878	3.2402	-8.5619	36.6477	778.814	-63.1844	283.1911	49.5489	785.1188	-0.0592	0.0182	-0.0073	-0.0462	0.0165	0.9585
26.4099	7.881	0.077011	-2.7767	-0.018234	6.5438	-0.68817	36.5452	764.8832	-65.1299	277.1993	50.8644	767.2608	-0.0592	0.0182	-0.0073	-0.0462	0.0165	0.9585
26.4214	12.6038	12.3216	-4.7863	-4.9315	11.0284	14.9073	36.1772	747.9588	-66.5698	270.1603	51.838	746.7773	-0.0592	0.0182	-0.0073	-0.0462	0.0165	0.9585
26.433	18.1143	32.5962	-7.3729	-13.031	16.5361	40.7601	35.9411	729.3704	-67.4019	262.6155	52.2287	724.8801	-0.0592	0.0182	-0.0073	-0.0462	0.0165	0.9585
26.4446	23.6169	62.492	-10.3712	-24.9286	22.5253	78.9177	36.157	710.3259	-67.5476	255.0467	51.8445	702.6903	-0.0592	0.0182	-0.0073	-0.0462	0.0165	0.9585
26.4561	27.672	102.4589	-13.3405	-40.773	27.8457	129.9789	37.0262	691.5879	-66.9263	247.7606	50.5356	680.9099	-0.0592	0.0182	-0.0073	-0.0462	0.0165	0.9585
26.4677	28.2256	150.9953	-15.5022	-59.9317	30.7073	192.0958	38.6044	673.2636	-65.4765	240.807	48.2216	659.6424	-0.0592	0.0182	-0.0073	-0.0462	0.0165	0.9585
26.4793	23.8643	204.7448	-15.8835	-81.0146	29.3411	261.0531	40.8392	654.7592	-63.156	233.9692	44.8838	638.3311	-0.0592	0.0182	-0.0073	-0.0462	0.0165	0.9585
26.4909	15.3155	259.0812	-13.528	-102.1099	22.823	330.9192	43.5691	634.9751	-59.9687	226.8326	40.5875	615.9523	-0.0592	0.0182	-0.0073	-0.0462	0.0165	0.9585
26.5024	4.8553	308.5022	-7.8469	-121.0393	11.3716	394.4091	46.5744	612.5225	-56.0129	218.8674	35.5124	591.2119	-0.0592	0.0182	-0.0073	-0.0462	0.0165	0.9585
26.514	-5.597	349.0679	0.48174	-136.3429	-3.3422	446.1335	49.5494	585.9738	-51.4587	209.5236	29.9356	562.8043	-0.0592	0.0182	-0.0073	-0.0462	0.0165	0.9585
26.5256	-14.9872	380.9619	9.9474	-148.189	-18.9637	486.1073	52.1408	554.1886	-46.5095	198.35	24.1833	529.7091	-0.0592	0.0182	-0.0073	-0.0462	0.0165	0.9585
26.5371	-23.1686	407.2501	18.9349	-157.882	-33.4009	518.2451	53.928	516.5594	-41.3597	185.0884	18.5948	491.4328	-0.0592	0.0182	-0.0073	-0.0462	0.0165	0.9585
26.5487	-30.2178	431.6717	26.4518	-166.9718	-45.4265	547.3268	54.4894	473.0995	-36.1534	169.7127	13.4627	448.0746	-0.0592	0.0182	-0.0073	-0.0462	0.0165	0.9585
26.5603	-36.2984	457.21	31.8033	-176.6774	-54.2624	577.1784	53.4235	424.4791	-30.9729	152.4425	9.0098	400.3586	-0.0592	0.0182	-0.0073	-0.0462	0.0165	0.9585
26.5719	-41.2287	485.3447	34.9087	-187.5917	-59.7798	609.5652	50.4527	371.959	-25.8823	133.7235	5.3969	349.5111	-0.0592	0.0182	-0.0073	-0.0462	0.0165	0.9585
26.5834	-44.8791	516.381	36.2692	-199.7816	-62.5689	644.8443	45.5112	317.3832	-21.0197	114.2125	2.7649	297.2765	-0.0592	0.0182	-0.0073	-0.0462	0.0165	0.9585
26.595	-47.0833	549.8107	36.6508	-212.9708	-63.5602	682.3219	38.8596	263.0142	-16.5784	94.7215	1.1766	245.7334	-0.0592	0.0182	-0.0073	-0.0462	0.0165	0.9585
26.6066	-47.9643	584.7996	36.991	-226.7268	-63.9438	721.0408	31.0815	211.2114	-12.7659	76.1003	0.58465	197.0044	-0.0592	0.0182	-0.0073	-0.0462	0.0165	0.9585
26.6181	-47.6809	620.2211	37.8988	-240.5294	-64.5649	759.6598	23.017	164.0148	-9.6843	59.0924	0.7579	152.8697	-0.0592	0.0182	-0.0073	-0.0462	0.0165	0.9585
26.6297	-46.5805	654.8506	39.8427	-253.8251	-66.1019	796.8042	15.5056	122.8028	-7.3119	44.2119	1.3572	114.4929	-0.0592	0.0182	-0.0073	-0.0462	0.0165	0.9585
26.6413	-44.9015	687.4616	42.8106	-266.1059	-68.6415	831.0475	9.1832	88.1821	-5.4993	31.7004	2.0145	82.3362	-0.0592	0.0182	-0.0073	-0.0462	0.0165	0.9585
26.6529	-42.857	717.1452	46.5442	-276.9966	-71.9377	861.4275	4.3208	60.1431	-4.0924	21.5708	2.4927	56.3418	-0.0592	0.0182	-0.0073	-0.0462	0.0165	0.9585
26.6644	-40.4946	743.1735	50.5593	-286.2282	-75.4324	887.1557	0.9024	38.2733	-2.9779	13.6834	2.7013	36.0856	-0.0592	0.0182	-0.0073	-0.0462	0.0165	0.9585
26.676	-37.8936	764.9297	54.3637	-293.5804	-78.567	907.6313	-1.2599	21.9856	-2.0741	7.8251	2.6382	21.0199	-0.0592	0.0182	-0.0073	-0.0462	0.0165	0.9585
26.6876	-35.0531	781.7253	57.6769	-298.8136	-81.0003	922.1532	-2.3795	10.5831	-1.3591	3.7408	2.3687	10.4806	-0.0592	0.0182	-0.0073	-0.0462	0.0165	0.9585
26.6991	-32.0294	792.9553	60.3938	-301.7178	-82.6186	930.1316	-2.7394	3.3153	-0.82159	1.1514	1.989	3.7548	-0.0592	0.0182	-0.0073	-0.0462	0.0165	0.9585
26.7107	-28.8049	798.1999	62.67	-302.1557	-83.5777	931.1716	-2.6375	-0.72359	-0.47166	-0.27303	1.6166	-0.013439	-0.0592	0.0182	-0.0073	-0.0462	0.0165	0.9585
26.7223	-25.4392	797.4584	64.6288	-300.1578	-84.0376	925.3718	-2.3088	-2.4674	-0.2747	-0.87154	1.3023	-1.6714	-0.0592	0.0182	-0.0073	-0.0462	0.0165	0.9585
26.7339	-22.0024	791.2837	66.3369	-295.985	-84.1094	913.4293	-1.8992	-2.7404	-0.18868	-0.94286	1.0629	-1.9661	-0.0592	0.0182	-0.0073	-0.0462	0.0165	0.9585
26.7454	-18.6077	780.8573	67.685	-290.1498	-83.7383	896.7813	-1.5115	-2.1758	-0.17985	-0.71865	0.90418	-1.4648	-0.0592	0.0182	-0.0073	-0.0462	0.0165	0.9585
26.757	-15.3239	767.6774	68.5756	-283.2912	-82.8704	877.1906	-1.1805	-1.2369	-0.20043	-0.36641	0.79779	-0.5918	-0.0592	0.0182	-0.0073	-0.0462	0.0165	0.9585
26.7686	-12.2451	753.254	68.969	-276.0381	-81.5156	856.4013	-0.93324	-0.20274	-0.23521	0.0098939	0.73968	0.40739	-0.0592	0.0182	-0.0073	-0.0462	0.0165	0.9585
26.7801	-9.3868	738.9014	68.8924	-268.9268	-79.7336	835.8648	-0.75707	0.74975	-0.2623	0.34941	0.70307	1.3539	-0.0592	0.0182	-0.0073	-0.0462	0.0165	0.9585
